<svg width="28" height="28" viewBox="0 0 28 28" fill="none" xmlns="http://www.w3.org/2000/svg">
<path d="M5.21624 2.03906C3.45929 2.03906 2.03442 3.46393 2.03442 5.22088V7.60724C2.03442 8.04674 2.39038 8.4027 2.82988 8.4027C4.3671 8.4027 5.6141 9.64956 5.6141 11.1869C5.6141 12.7243 4.36723 13.9711 2.82988 13.9711C2.39038 13.9711 2.03442 14.3271 2.03442 14.7666V17.153C2.03442 18.9099 3.45929 20.3348 5.21624 20.3348H11.6196C11.5927 20.0733 11.5798 19.8078 11.5798 19.5393C11.5798 19.2708 11.5927 19.0054 11.6196 18.7439H5.21624C4.33727 18.7439 3.62533 18.0319 3.62533 17.153V15.4894C5.6617 15.1156 7.20475 13.3318 7.20475 11.1871C7.20475 9.04247 5.66157 7.25847 3.62533 6.88479V5.22129C3.62533 4.34232 4.33727 3.63038 5.21624 3.63038H22.7162C23.5952 3.63038 24.3072 4.34232 24.3072 5.22129V6.88479C22.2708 7.25867 20.7277 9.04247 20.7277 11.1871C20.7277 11.3532 20.7367 11.5172 20.7546 11.6783C21.3581 11.7708 21.9398 11.9319 22.4907 12.1526C22.3793 11.8513 22.3186 11.5262 22.3186 11.1871C22.3186 9.6499 23.5655 8.4029 25.1029 8.4029C25.3137 8.4029 25.5165 8.31938 25.6656 8.17023C25.8148 8.02108 25.8983 7.81825 25.8983 7.60746V5.22109C25.8983 3.46415 24.4734 2.03928 22.7165 2.03928L5.21624 2.03906Z" fill="#006719"/>
<path d="M9.19385 7.20997C9.19385 7.64947 9.5498 8.00543 9.9893 8.00543C10.4288 8.00543 10.7848 7.64947 10.7848 7.20997V5.61906C10.7848 5.17956 10.4288 4.82361 9.9893 4.82361C9.5498 4.82361 9.19385 5.17956 9.19385 5.61906V7.20997Z" fill="#006719"/>
<path d="M9.9893 12.7769C9.5498 12.7769 9.19385 12.421 9.19385 11.9815V10.3905C9.19385 9.95105 9.5498 9.59509 9.9893 9.59509C10.4288 9.59509 10.7848 9.95105 10.7848 10.3905V11.9815C10.7848 12.421 10.4288 12.7769 9.9893 12.7769Z" fill="#006719"/>
<path d="M9.9893 17.5484C9.5498 17.5484 9.19385 17.1924 9.19385 16.7529V15.162C9.19385 14.7225 9.5498 14.3666 9.9893 14.3666C10.4288 14.3666 10.7848 14.7225 10.7848 15.162V16.7529C10.7848 17.1924 10.4288 17.5484 9.9893 17.5484Z" fill="#006719"/>
<path d="M19.535 15.5605C19.9586 15.5605 20.3046 15.8917 20.3295 16.3093H21.126C21.5655 16.3093 21.9214 16.6652 21.9214 17.1047C21.9214 17.5442 21.5655 17.9002 21.126 17.9002H19.0936C18.9404 17.9002 18.7396 18.0453 18.7396 18.3208C18.7396 18.5972 18.9404 18.7423 19.0936 18.7423H19.9765C21.0931 18.7423 21.9214 19.6869 21.9214 20.7548C21.9214 21.7064 21.2632 22.5595 20.3305 22.7335C20.3225 23.167 19.9696 23.515 19.535 23.515C19.1115 23.515 18.7655 23.1839 18.7406 22.7663H17.9441C17.5046 22.7663 17.1487 22.4104 17.1487 21.9709C17.1487 21.5314 17.5046 21.1754 17.9441 21.1754H19.9765C20.1297 21.1754 20.3305 21.0302 20.3305 20.7548C20.3305 20.4784 20.1296 20.3332 19.9765 20.3332H19.0936C17.9769 20.3332 17.1487 19.3887 17.1487 18.3208C17.1487 17.3692 17.8069 16.5161 18.7396 16.3421C18.7475 15.9086 19.1005 15.5605 19.535 15.5605Z" fill="#006719"/>
<path fill-rule="evenodd" clip-rule="evenodd" d="M19.5338 13.1771C23.0488 13.1771 25.8974 16.0257 25.8974 19.5408C25.8974 23.0558 23.0488 25.9044 19.5338 25.9044C16.0188 25.9044 13.1702 23.0558 13.1702 19.5408C13.1702 16.0257 16.0188 13.1771 19.5338 13.1771ZM24.3065 19.5408C24.3065 16.9049 22.1697 14.768 19.5338 14.768C16.8979 14.768 14.7611 16.9048 14.7611 19.5408C14.7611 22.1767 16.8979 24.3135 19.5338 24.3135C22.1697 24.3135 24.3065 22.1767 24.3065 19.5408Z" fill="#006719"/>
</svg>
